<svg xmlns="http://www.w3.org/2000/svg" width="760" height="364" viewBox="0 0 760 364" role="img" aria-label="Snapline repair iterations (median)">
  <defs>
    <pattern id="tbd" width="8" height="8" patternTransform="rotate(45)" patternUnits="userSpaceOnUse">
      <rect width="8" height="8" fill="#e2e8f0"/><line x1="0" y1="0" x2="0" y2="8" stroke="#94a3b8" stroke-width="2"/>
    </pattern>
  </defs>
  <rect width="760" height="364" fill="#ffffff"/>
  <text x="16" y="28" font-size="15" font-weight="bold" fill="#111" font-family="ui-sans-serif, system-ui">Snapline repair iterations (median)</text>
  <text x="16" y="46" font-size="11" fill="#666" font-family="ui-sans-serif, system-ui">agent-ui-drift-bench · 188 runs · generated 2026-07-05T03:53:31.632Z · config da6de300d39ed56d · median, lower is better</text>
  <text x="222" y="77" text-anchor="end" font-size="12" fill="#333" font-family="ui-monospace, monospace">claude-raw</text>
  <rect x="230" y="60" width="2" height="26" fill="#64748b" rx="3"/>
  <text x="240" y="77" font-size="12" fill="#333" font-family="ui-monospace, monospace">0.0</text>
  <text x="222" y="113" text-anchor="end" font-size="12" fill="#333" font-family="ui-monospace, monospace">claude-project-instructions</text>
  <rect x="230" y="96" width="2" height="26" fill="#64748b" rx="3"/>
  <text x="240" y="113" font-size="12" fill="#333" font-family="ui-monospace, monospace">0.0</text>
  <text x="222" y="149" text-anchor="end" font-size="12" fill="#333" font-family="ui-monospace, monospace">claude-shadcn-mcp</text>
  <rect x="230" y="132" width="2" height="26" fill="#64748b" rx="3"/>
  <text x="240" y="149" font-size="12" fill="#333" font-family="ui-monospace, monospace">0.0</text>
  <text x="222" y="185" text-anchor="end" font-size="12" fill="#333" font-family="ui-monospace, monospace">claude-tailwind-eslint</text>
  <rect x="230" y="168" width="2" height="26" fill="#64748b" rx="3"/>
  <text x="240" y="185" font-size="12" fill="#333" font-family="ui-monospace, monospace">0.0</text>
  <text x="222" y="221" text-anchor="end" font-size="12" fill="#333" font-family="ui-monospace, monospace">claude-buoy</text>
  <rect x="230" y="204" width="2" height="26" fill="#64748b" rx="3"/>
  <text x="240" y="221" font-size="12" fill="#333" font-family="ui-monospace, monospace">0.0</text>
  <text x="222" y="257" text-anchor="end" font-size="12" fill="#333" font-family="ui-monospace, monospace">claude-drift-guard</text>
  <rect x="230" y="240" width="2" height="26" fill="#64748b" rx="3"/>
  <text x="240" y="257" font-size="12" fill="#333" font-family="ui-monospace, monospace">0.0</text>
  <text x="222" y="293" text-anchor="end" font-size="12" fill="#333" font-family="ui-monospace, monospace">claude-snapline</text>
  <rect x="230" y="276" width="2" height="26" fill="#0f766e" rx="3"/>
  <text x="240" y="293" font-size="12" fill="#333" font-family="ui-monospace, monospace">0.0</text>
  <text x="222" y="329" text-anchor="end" font-size="12" fill="#333" font-family="ui-monospace, monospace">claude-shadcn-mcp-snapline</text>
  <rect x="230" y="312" width="2" height="26" fill="#0f766e" rx="3"/>
  <text x="240" y="329" font-size="12" fill="#333" font-family="ui-monospace, monospace">0.0</text>
</svg>
