<svg xmlns="http://www.w3.org/2000/svg" width="900" height="374" viewBox="0 0 900 374" role="img" aria-label="Snapline scan latency">
<rect width="900" height="374" fill="white"/>
<text x="16" y="24" font-size="16" font-weight="bold">Snapline scan latency</text>
<text x="16" y="43" font-size="11">darwin arm64 · Node v22.18.0 · Apple M3</text>
<text x="250" y="76" text-anchor="end" font-size="12" font-family="ui-monospace,monospace">core_single_file</text>
<rect x="260" y="60" width="2" height="12" rx="2" fill="#94a3b8"/>
<rect x="260" y="75" width="2" height="12" rx="2" fill="#0f766e"/>
<text x="270" y="71" font-size="11" font-family="ui-monospace,monospace">p95 0.74ms</text>
<text x="270" y="86" font-size="11" font-family="ui-monospace,monospace">p50 0.253ms</text>
<text x="250" y="118" text-anchor="end" font-size="12" font-family="ui-monospace,monospace">core_small_project</text>
<rect x="260" y="102" width="6" height="12" rx="2" fill="#94a3b8"/>
<rect x="260" y="117" width="4" height="12" rx="2" fill="#0f766e"/>
<text x="274" y="113" font-size="11" font-family="ui-monospace,monospace">p95 9.577ms</text>
<text x="272" y="128" font-size="11" font-family="ui-monospace,monospace">p50 6.187ms</text>
<text x="250" y="160" text-anchor="end" font-size="12" font-family="ui-monospace,monospace">core_medium_100_files</text>
<rect x="260" y="144" width="9" height="12" rx="2" fill="#94a3b8"/>
<rect x="260" y="159" width="8" height="12" rx="2" fill="#0f766e"/>
<text x="277" y="155" font-size="11" font-family="ui-monospace,monospace">p95 13.904ms</text>
<text x="276" y="170" font-size="11" font-family="ui-monospace,monospace">p50 13.173ms</text>
<text x="250" y="202" text-anchor="end" font-size="12" font-family="ui-monospace,monospace">core_large_1000_files</text>
<rect x="260" y="186" width="78" height="12" rx="2" fill="#94a3b8"/>
<rect x="260" y="201" width="75" height="12" rx="2" fill="#0f766e"/>
<text x="346" y="197" font-size="11" font-family="ui-monospace,monospace">p95 123.686ms</text>
<text x="343" y="212" font-size="11" font-family="ui-monospace,monospace">p50 118.238ms</text>
<text x="250" y="244" text-anchor="end" font-size="12" font-family="ui-monospace,monospace">core_no_change_rerun_1000_files</text>
<rect x="260" y="228" width="71" height="12" rx="2" fill="#94a3b8"/>
<rect x="260" y="243" width="70" height="12" rx="2" fill="#0f766e"/>
<text x="339" y="239" font-size="11" font-family="ui-monospace,monospace">p95 112.503ms</text>
<text x="338" y="254" font-size="11" font-family="ui-monospace,monospace">p50 110.774ms</text>
<text x="250" y="286" text-anchor="end" font-size="12" font-family="ui-monospace,monospace">core_incremental_one_of_1000</text>
<rect x="260" y="270" width="2" height="12" rx="2" fill="#94a3b8"/>
<rect x="260" y="285" width="2" height="12" rx="2" fill="#0f766e"/>
<text x="270" y="281" font-size="11" font-family="ui-monospace,monospace">p95 0.403ms</text>
<text x="270" y="296" font-size="11" font-family="ui-monospace,monospace">p50 0.272ms</text>
<text x="250" y="328" text-anchor="end" font-size="12" font-family="ui-monospace,monospace">cli_cold_start_single_file</text>
<rect x="260" y="312" width="520" height="12" rx="2" fill="#94a3b8"/>
<rect x="260" y="327" width="315" height="12" rx="2" fill="#0f766e"/>
<text x="788" y="323" font-size="11" font-family="ui-monospace,monospace">p95 821.27ms</text>
<text x="583" y="338" font-size="11" font-family="ui-monospace,monospace">p50 496.866ms</text>
</svg>
